<svg xmlns="http://www.w3.org/2000/svg" xmlns:xlink="http://www.w3.org/1999/xlink" version="1.1" width="256" height="256" viewBox="0 0 256 256" xml:space="preserve">

<defs>
</defs>
<g style="stroke: none; stroke-width: 0; stroke-dasharray: none; stroke-linecap: butt; stroke-linejoin: miter; stroke-miterlimit: 10; fill: none; fill-rule: nonzero; opacity: 1;" transform="translate(1.4065934065934016 1.4065934065934016) scale(2.81 2.81)" >
	<path d="M 89 88.237 H 1 c -0.552 0 -1 -0.447 -1 -1 V 28.551 c 0 -6.354 4.894 -11.79 11.637 -12.926 l 11.878 -2 c 4.116 -0.693 7.104 -3.968 7.104 -7.786 l 0.075 -3.1 c 0.013 -0.543 0.457 -0.976 1 -0.976 h 26.619 c 0.543 0 0.987 0.434 1 0.977 l 0.07 3.076 c 0 3.841 2.987 7.116 7.104 7.809 l 11.878 2 C 85.106 16.762 90 22.198 90 28.551 v 58.686 C 90 87.79 89.553 88.237 89 88.237 z M 2 86.237 h 86 V 28.551 c 0 -5.374 -4.192 -9.98 -9.969 -10.953 l -11.878 -2 c -5.083 -0.856 -8.771 -4.96 -8.771 -9.759 l -0.048 -2.076 H 32.668 l -0.051 2.1 c 0 4.774 -3.688 8.878 -8.771 9.735 l -11.878 2 C 6.192 18.571 2 23.178 2 28.551 V 86.237 z" style="stroke: none; stroke-width: 1; stroke-dasharray: none; stroke-linecap: butt; stroke-linejoin: miter; stroke-miterlimit: 10; fill: rgb(0,0,0); fill-rule: nonzero; opacity: 1;" transform=" matrix(1 0 0 1 0 0) " stroke-linecap="round" />
	<path d="M 45.016 24.57 c -6.678 0 -13.361 -3.271 -20.002 -9.815 c -0.394 -0.388 -0.398 -1.021 -0.011 -1.414 c 0.388 -0.394 1.021 -0.398 1.414 -0.011 c 12.525 12.34 24.681 12.341 37.166 0.001 c 0.395 -0.388 1.027 -0.384 1.414 0.008 c 0.389 0.393 0.385 1.026 -0.008 1.415 C 58.367 21.298 51.693 24.57 45.016 24.57 z" style="stroke: none; stroke-width: 1; stroke-dasharray: none; stroke-linecap: butt; stroke-linejoin: miter; stroke-miterlimit: 10; fill: rgb(0,0,0); fill-rule: nonzero; opacity: 1;" transform=" matrix(1 0 0 1 0 0) " stroke-linecap="round" />
	<path d="M 65.46 35.668 H 24.541 c -0.552 0 -1 -0.448 -1 -1 s 0.448 -1 1 -1 H 65.46 c 0.553 0 1 0.448 1 1 S 66.013 35.668 65.46 35.668 z" style="stroke: none; stroke-width: 1; stroke-dasharray: none; stroke-linecap: butt; stroke-linejoin: miter; stroke-miterlimit: 10; fill: rgb(0,0,0); fill-rule: nonzero; opacity: 1;" transform=" matrix(1 0 0 1 0 0) " stroke-linecap="round" />
	<path d="M 69.103 41.511 c -2.56 0 -4.643 -2.083 -4.643 -4.643 V 14.393 c 0 -0.31 0.144 -0.602 0.388 -0.791 c 0.245 -0.189 0.563 -0.255 0.863 -0.177 l 0.291 0.08 c 0.158 0.045 0.315 0.092 0.482 0.12 l 6.427 1.083 c 0.481 0.082 0.834 0.498 0.834 0.986 v 21.174 C 73.745 39.428 71.662 41.511 69.103 41.511 z M 66.46 15.649 v 21.219 c 0 1.458 1.186 2.643 2.643 2.643 s 2.643 -1.186 2.643 -2.643 V 16.54 L 66.46 15.649 z" style="stroke: none; stroke-width: 1; stroke-dasharray: none; stroke-linecap: butt; stroke-linejoin: miter; stroke-miterlimit: 10; fill: rgb(0,0,0); fill-rule: nonzero; opacity: 1;" transform=" matrix(1 0 0 1 0 0) " stroke-linecap="round" />
	<path d="M 20.897 41.511 c -2.56 0 -4.643 -2.083 -4.643 -4.643 V 15.694 c 0 -0.488 0.353 -0.905 0.834 -0.986 l 6.426 -1.083 c 0.167 -0.028 0.324 -0.075 0.482 -0.12 l 0.293 -0.081 c 0.298 -0.076 0.618 -0.012 0.863 0.177 c 0.245 0.189 0.388 0.481 0.388 0.791 v 22.476 C 25.541 39.428 23.458 41.511 20.897 41.511 z M 18.255 16.54 v 20.329 c 0 1.458 1.186 2.643 2.643 2.643 c 1.458 0 2.643 -1.186 2.643 -2.643 V 15.649 L 18.255 16.54 z" style="stroke: none; stroke-width: 1; stroke-dasharray: none; stroke-linecap: butt; stroke-linejoin: miter; stroke-miterlimit: 10; fill: rgb(0,0,0); fill-rule: nonzero; opacity: 1;" transform=" matrix(1 0 0 1 0 0) " stroke-linecap="round" />
	<path d="M 15.202 47.2 H 1 c -0.552 0 -1 -0.447 -1 -1 c 0 -0.552 0.448 -1 1 -1 h 14.202 c 0.552 0 1 0.448 1 1 C 16.202 46.753 15.754 47.2 15.202 47.2 z" style="stroke: none; stroke-width: 1; stroke-dasharray: none; stroke-linecap: butt; stroke-linejoin: miter; stroke-miterlimit: 10; fill: rgb(0,0,0); fill-rule: nonzero; opacity: 1;" transform=" matrix(1 0 0 1 0 0) " stroke-linecap="round" />
	<path d="M 89 47.2 H 74.798 c -0.553 0 -1 -0.447 -1 -1 c 0 -0.552 0.447 -1 1 -1 H 89 c 0.553 0 1 0.448 1 1 C 90 46.753 89.553 47.2 89 47.2 z" style="stroke: none; stroke-width: 1; stroke-dasharray: none; stroke-linecap: butt; stroke-linejoin: miter; stroke-miterlimit: 10; fill: rgb(0,0,0); fill-rule: nonzero; opacity: 1;" transform=" matrix(1 0 0 1 0 0) " stroke-linecap="round" />
	<path d="M 65.46 35.668 H 24.541 c -0.552 0 -1 -0.448 -1 -1 s 0.448 -1 1 -1 H 65.46 c 0.553 0 1 0.448 1 1 S 66.013 35.668 65.46 35.668 z" style="stroke: none; stroke-width: 1; stroke-dasharray: none; stroke-linecap: butt; stroke-linejoin: miter; stroke-miterlimit: 10; fill: rgb(0,0,0); fill-rule: nonzero; opacity: 1;" transform=" matrix(1 0 0 1 0 0) " stroke-linecap="round" />
	<path d="M 72.745 88.237 h -55.49 c -0.552 0 -1 -0.447 -1 -1 V 58.349 l -3.269 -20.363 c -0.008 -0.053 -0.013 -0.105 -0.013 -0.159 c 0 -2.293 1.866 -4.159 4.159 -4.159 h 0.123 c 0.552 0 1 0.448 1 1 s -0.448 1 -1 1 h -0.123 c -1.166 0 -2.119 0.929 -2.158 2.086 l 3.268 20.356 c 0.008 0.052 0.013 0.105 0.013 0.158 v 27.969 h 53.49 V 58.269 c 0 -0.053 0.004 -0.106 0.013 -0.158 l 3.269 -20.356 c -0.038 -1.157 -0.992 -2.086 -2.158 -2.086 h -0.123 c -0.553 0 -1 -0.448 -1 -1 s 0.447 -1 1 -1 h 0.123 c 2.293 0 4.159 1.866 4.159 4.159 c 0 0.053 -0.004 0.106 -0.013 0.159 l -3.27 20.363 v 28.889 C 73.745 87.79 73.298 88.237 72.745 88.237 z" style="stroke: none; stroke-width: 1; stroke-dasharray: none; stroke-linecap: butt; stroke-linejoin: miter; stroke-miterlimit: 10; fill: rgb(0,0,0); fill-rule: nonzero; opacity: 1;" transform=" matrix(1 0 0 1 0 0) " stroke-linecap="round" />
	<path d="M 41.518 88.237 H 24.474 c -0.552 0 -1 -0.447 -1 -1 V 75.562 c 0 -0.553 0.448 -1 1 -1 h 17.044 c 0.552 0 1 0.447 1 1 v 11.676 C 42.518 87.79 42.07 88.237 41.518 88.237 z M 25.474 86.237 h 15.044 v -9.676 H 25.474 V 86.237 z" style="stroke: none; stroke-width: 1; stroke-dasharray: none; stroke-linecap: butt; stroke-linejoin: miter; stroke-miterlimit: 10; fill: rgb(0,0,0); fill-rule: nonzero; opacity: 1;" transform=" matrix(1 0 0 1 0 0) " stroke-linecap="round" />
	<path d="M 65.421 88.237 H 48.377 c -0.553 0 -1 -0.447 -1 -1 V 75.562 c 0 -0.553 0.447 -1 1 -1 h 17.044 c 0.553 0 1 0.447 1 1 v 11.676 C 66.421 87.79 65.974 88.237 65.421 88.237 z M 49.377 86.237 h 15.044 v -9.676 H 49.377 V 86.237 z" style="stroke: none; stroke-width: 1; stroke-dasharray: none; stroke-linecap: butt; stroke-linejoin: miter; stroke-miterlimit: 10; fill: rgb(0,0,0); fill-rule: nonzero; opacity: 1;" transform=" matrix(1 0 0 1 0 0) " stroke-linecap="round" />
	<path d="M 36.673 76.562 h -7.354 c -0.552 0 -1 -0.447 -1 -1 v -7.485 c -3.541 -1.766 -5.794 -5.374 -5.794 -9.37 c 0 -3.979 2.217 -7.564 5.786 -9.354 c 0.309 -0.156 0.677 -0.141 0.973 0.043 c 0.295 0.182 0.475 0.504 0.475 0.851 v 6.331 c 0 1.785 1.452 3.237 3.237 3.237 s 3.237 -1.452 3.237 -3.237 v -6.331 c 0 -0.347 0.18 -0.669 0.475 -0.851 c 0.294 -0.184 0.664 -0.199 0.973 -0.043 c 3.569 1.79 5.786 5.375 5.786 9.354 c 0 3.996 -2.253 7.604 -5.794 9.37 v 7.485 C 37.673 76.114 37.225 76.562 36.673 76.562 z M 30.319 74.562 h 5.354 v -7.126 c 0 -0.402 0.241 -0.766 0.611 -0.922 c 3.148 -1.327 5.183 -4.392 5.183 -7.808 c 0 -2.64 -1.207 -5.064 -3.234 -6.65 v 4.521 c 0 2.888 -2.349 5.237 -5.237 5.237 s -5.237 -2.35 -5.237 -5.237 v -4.521 c -2.027 1.586 -3.234 4.011 -3.234 6.65 c 0 3.416 2.034 6.48 5.183 7.808 c 0.371 0.156 0.611 0.52 0.611 0.922 V 74.562 z" style="stroke: none; stroke-width: 1; stroke-dasharray: none; stroke-linecap: butt; stroke-linejoin: miter; stroke-miterlimit: 10; fill: rgb(0,0,0); fill-rule: nonzero; opacity: 1;" transform=" matrix(1 0 0 1 0 0) " stroke-linecap="round" />
	<path d="M 60.908 71.184 H 52.89 c -0.553 0 -1 -0.447 -1 -1 v -2.657 c 0 -0.25 0.094 -0.49 0.262 -0.675 c 0.905 -0.99 1.425 -2.465 1.425 -4.046 s -0.52 -3.056 -1.425 -4.046 c -0.168 -0.185 -0.262 -0.425 -0.262 -0.675 v -9.003 c 0 -2.762 2.247 -5.009 5.009 -5.009 c 2.763 0 5.01 2.248 5.01 5.009 v 9.003 c 0 0.25 -0.094 0.49 -0.262 0.675 c -0.905 0.99 -1.425 2.465 -1.425 4.046 s 0.52 3.056 1.425 4.046 c 0.168 0.185 0.262 0.425 0.262 0.675 v 2.657 C 61.908 70.736 61.461 71.184 60.908 71.184 z M 53.89 69.184 h 6.019 v -1.288 c -1.076 -1.336 -1.687 -3.166 -1.687 -5.09 s 0.61 -3.754 1.687 -5.09 v -8.634 c 0 -1.659 -1.351 -3.01 -3.01 -3.01 s -3.009 1.351 -3.009 3.01 v 8.634 c 1.076 1.336 1.687 3.166 1.687 5.09 s -0.61 3.754 -1.687 5.09 V 69.184 z" style="stroke: none; stroke-width: 1; stroke-dasharray: none; stroke-linecap: butt; stroke-linejoin: miter; stroke-miterlimit: 10; fill: rgb(0,0,0); fill-rule: nonzero; opacity: 1;" transform=" matrix(1 0 0 1 0 0) " stroke-linecap="round" />
	<path d="M 56.898 76.562 c -0.553 0 -1 -0.447 -1 -1 v -5.378 c 0 -0.553 0.447 -1 1 -1 s 1 0.447 1 1 v 5.378 C 57.898 76.114 57.451 76.562 56.898 76.562 z" style="stroke: none; stroke-width: 1; stroke-dasharray: none; stroke-linecap: butt; stroke-linejoin: miter; stroke-miterlimit: 10; fill: rgb(0,0,0); fill-rule: nonzero; opacity: 1;" transform=" matrix(1 0 0 1 0 0) " stroke-linecap="round" />
</g>
</svg>