<svg xmlns="http://www.w3.org/2000/svg" xmlns:xlink="http://www.w3.org/1999/xlink" version="1.1" width="256" height="256" viewBox="0 0 256 256" xml:space="preserve">

<defs>
</defs>
<g style="stroke: none; stroke-width: 0; stroke-dasharray: none; stroke-linecap: butt; stroke-linejoin: miter; stroke-miterlimit: 10; fill: none; fill-rule: nonzero; opacity: 1;" transform="translate(1.4065934065934016 1.4065934065934016) scale(2.81 2.81)" >
	<path d="M 44.42 64.732 H 32.456 c -3.074 0 -6.063 -1.063 -8.458 -2.999 l -2.546 -0.001 c -0.552 0 -1 -0.448 -1 -1 c 0 -0.553 0.448 -1 1 -1 h 2.908 c 0.238 0 0.469 0.085 0.65 0.24 c 2.079 1.779 4.724 2.76 7.446 2.76 H 44.42 c 1.091 0 1.979 -0.888 1.979 -1.979 v -0.289 c 0 -1.091 -0.888 -1.979 -1.979 -1.979 c -0.552 0 -1 -0.447 -1 -1 s 0.448 -1 1 -1 h 2.273 c 1.092 0 1.979 -0.888 1.979 -1.979 v -0.289 c 0 -1.091 -0.888 -1.979 -1.979 -1.979 c -0.553 0 -1 -0.447 -1 -1 s 0.447 -1 1 -1 h 2.114 c 1.091 0 1.979 -0.888 1.979 -1.979 v -0.289 c 0 -1.091 -0.888 -1.979 -1.979 -1.979 c -0.553 0 -1 -0.448 -1 -1 s 0.447 -1 1 -1 h 0.169 c 1.092 0 1.979 -0.888 1.979 -1.979 v -0.289 c 0 -1.091 -0.888 -1.979 -1.979 -1.979 l -10.565 0.014 c -3.813 -0.34 -3.825 -3.861 -3.831 -5.752 c -0.002 -0.552 0.444 -1.001 0.997 -1.003 c 0.001 0 0.002 0 0.003 0 c 0.551 0 0.998 0.446 1 0.997 c 0.01 3.091 0.574 3.641 1.919 3.762 l 10.476 -0.018 c 2.195 0 3.98 1.785 3.98 3.979 v 0.289 c 0 1.226 -0.557 2.323 -1.432 3.054 c 0.776 0.727 1.262 1.759 1.262 2.904 v 0.289 c 0 1.769 -1.16 3.271 -2.759 3.787 c 0.408 0.625 0.646 1.37 0.646 2.17 v 0.289 c 0 1.817 -1.226 3.354 -2.894 3.828 c 0.392 0.616 0.619 1.347 0.619 2.129 v 0.289 C 48.398 62.947 46.613 64.732 44.42 64.732 z" style="stroke: none; stroke-width: 1; stroke-dasharray: none; stroke-linecap: butt; stroke-linejoin: miter; stroke-miterlimit: 10; fill: rgb(0,0,0); fill-rule: nonzero; opacity: 1;" transform=" matrix(1 0 0 1 0 0) " stroke-linecap="round" />
	<path d="M 24.503 42.638 h -3.052 c -0.552 0 -1 -0.448 -1 -1 s 0.448 -1 1 -1 h 2.698 l 7.576 -6.128 c 1.086 -0.879 2.394 -1.398 3.782 -1.5 c 0.54 -0.045 1.03 0.372 1.071 0.923 c 0.041 0.551 -0.373 1.03 -0.923 1.071 c -0.979 0.073 -1.903 0.439 -2.671 1.061 l -7.851 6.351 C 24.954 42.559 24.732 42.638 24.503 42.638 z" style="stroke: none; stroke-width: 1; stroke-dasharray: none; stroke-linecap: butt; stroke-linejoin: miter; stroke-miterlimit: 10; fill: rgb(0,0,0); fill-rule: nonzero; opacity: 1;" transform=" matrix(1 0 0 1 0 0) " stroke-linecap="round" />
	<path d="M 40.456 46 c -0.552 0 -1 -0.447 -1 -0.999 c 0 -0.553 0.447 -1 0.999 -1.001 l 8.352 -0.006 h 0.001 c 0.552 0 1 0.447 1 0.999 c 0 0.553 -0.447 1 -0.999 1.001 L 40.456 46 C 40.457 46 40.456 46 40.456 46 z" style="stroke: none; stroke-width: 1; stroke-dasharray: none; stroke-linecap: butt; stroke-linejoin: miter; stroke-miterlimit: 10; fill: rgb(0,0,0); fill-rule: nonzero; opacity: 1;" transform=" matrix(1 0 0 1 0 0) " stroke-linecap="round" />
	<path d="M 40.456 52.246 c -0.552 0 -1 -0.447 -1 -0.999 c 0 -0.553 0.447 -1 0.999 -1.001 l 6.237 -0.006 h 0.001 c 0.552 0 0.999 0.447 1 0.999 c 0.001 0.553 -0.446 1 -0.999 1.001 L 40.456 52.246 C 40.457 52.246 40.457 52.246 40.456 52.246 z" style="stroke: none; stroke-width: 1; stroke-dasharray: none; stroke-linecap: butt; stroke-linejoin: miter; stroke-miterlimit: 10; fill: rgb(0,0,0); fill-rule: nonzero; opacity: 1;" transform=" matrix(1 0 0 1 0 0) " stroke-linecap="round" />
	<path d="M 44.42 58.486 h -3.964 c -0.552 0 -1 -0.447 -1 -1 s 0.448 -1 1 -1 h 3.964 c 0.552 0 1 0.447 1 1 S 44.972 58.486 44.42 58.486 z" style="stroke: none; stroke-width: 1; stroke-dasharray: none; stroke-linecap: butt; stroke-linejoin: miter; stroke-miterlimit: 10; fill: rgb(0,0,0); fill-rule: nonzero; opacity: 1;" transform=" matrix(1 0 0 1 0 0) " stroke-linecap="round" />
	<path d="M 21.451 65.534 h -8.347 c -0.552 0 -1 -0.447 -1 -1 V 37.871 c 0 -0.552 0.448 -1 1 -1 h 8.347 c 0.552 0 1 0.448 1 1 v 26.663 C 22.451 65.087 22.003 65.534 21.451 65.534 z M 14.104 63.534 h 6.347 V 38.871 h -6.347 V 63.534 z" style="stroke: none; stroke-width: 1; stroke-dasharray: none; stroke-linecap: butt; stroke-linejoin: miter; stroke-miterlimit: 10; fill: rgb(0,0,0); fill-rule: nonzero; opacity: 1;" transform=" matrix(1 0 0 1 0 0) " stroke-linecap="round" />
	<path d="M 13.104 63.856 H 1 c -0.552 0 -1 -0.447 -1 -1 V 39.549 c 0 -0.552 0.448 -1 1 -1 h 12.104 c 0.552 0 1 0.448 1 1 v 23.308 C 14.104 63.409 13.656 63.856 13.104 63.856 z M 2 61.856 h 10.104 V 40.549 H 2 V 61.856 z" style="stroke: none; stroke-width: 1; stroke-dasharray: none; stroke-linecap: butt; stroke-linejoin: miter; stroke-miterlimit: 10; fill: rgb(0,0,0); fill-rule: nonzero; opacity: 1;" transform=" matrix(1 0 0 1 0 0) " stroke-linecap="round" />
	<path d="M 75.905 28.939 h -5.43 c -0.553 0 -1 -0.448 -1 -1 V 17.173 c 0 -0.552 0.447 -1 1 -1 h 5.43 c 0.553 0 1 0.448 1 1 v 10.767 C 76.905 28.492 76.458 28.939 75.905 28.939 z M 71.476 26.939 h 3.43 v -8.767 h -3.43 V 26.939 z" style="stroke: none; stroke-width: 1; stroke-dasharray: none; stroke-linecap: butt; stroke-linejoin: miter; stroke-miterlimit: 10; fill: rgb(0,0,0); fill-rule: nonzero; opacity: 1;" transform=" matrix(1 0 0 1 0 0) " stroke-linecap="round" />
	<path d="M 57.661 25.969 H 35.045 c -0.552 0 -1 -0.448 -1 -1 s 0.448 -1 1 -1 h 22.616 c 0.553 0 1 0.448 1 1 S 58.214 25.969 57.661 25.969 z" style="stroke: none; stroke-width: 1; stroke-dasharray: none; stroke-linecap: butt; stroke-linejoin: miter; stroke-miterlimit: 10; fill: rgb(0,0,0); fill-rule: nonzero; opacity: 1;" transform=" matrix(1 0 0 1 0 0) " stroke-linecap="round" />
	<path d="M 57.661 21.144 H 35.045 c -0.552 0 -1 -0.448 -1 -1 s 0.448 -1 1 -1 h 22.616 c 0.553 0 1 0.448 1 1 S 58.214 21.144 57.661 21.144 z" style="stroke: none; stroke-width: 1; stroke-dasharray: none; stroke-linecap: butt; stroke-linejoin: miter; stroke-miterlimit: 10; fill: rgb(0,0,0); fill-rule: nonzero; opacity: 1;" transform=" matrix(1 0 0 1 0 0) " stroke-linecap="round" />
	<path d="M 89 23.556 h -6.971 c -0.553 0 -1 -0.448 -1 -1 s 0.447 -1 1 -1 H 89 c 0.553 0 1 0.448 1 1 S 89.553 23.556 89 23.556 z" style="stroke: none; stroke-width: 1; stroke-dasharray: none; stroke-linecap: butt; stroke-linejoin: miter; stroke-miterlimit: 10; fill: rgb(0,0,0); fill-rule: nonzero; opacity: 1;" transform=" matrix(1 0 0 1 0 0) " stroke-linecap="round" />
	<path d="M 78.222 30.119 h -2.316 c -0.553 0 -1 -0.448 -1 -1 V 15.993 c 0 -0.552 0.447 -1 1 -1 h 2.316 c 2.341 0 4.246 1.905 4.246 4.247 v 6.633 C 82.468 28.214 80.563 30.119 78.222 30.119 z M 76.905 28.119 h 1.316 c 1.238 0 2.246 -1.008 2.246 -2.247 V 19.24 c 0 -1.239 -1.008 -2.247 -2.246 -2.247 h -1.316 V 28.119 z" style="stroke: none; stroke-width: 1; stroke-dasharray: none; stroke-linecap: butt; stroke-linejoin: miter; stroke-miterlimit: 10; fill: rgb(0,0,0); fill-rule: nonzero; opacity: 1;" transform=" matrix(1 0 0 1 0 0) " stroke-linecap="round" />
	<path d="M 45.202 39.752 c -0.05 0 -0.1 -0.003 -0.15 -0.011 c -0.546 -0.082 -0.922 -0.591 -0.84 -1.137 l 0.77 -5.119 c 0.267 -1.727 1.726 -2.978 3.47 -2.978 h 19.778 c 0.688 0 1.246 -0.559 1.246 -1.247 v -13.41 c 0 -0.687 -0.559 -1.246 -1.246 -1.246 H 33.412 c -0.687 0 -1.246 0.559 -1.246 1.246 v 13.41 c 0 0.688 0.559 1.247 1.246 1.247 h 0.69 c 0.831 0 1.545 0.323 2.012 0.911 c 0.386 0.485 0.775 1.367 0.44 2.813 c -0.125 0.538 -0.66 0.874 -1.2 0.749 c -0.538 -0.125 -0.873 -0.662 -0.749 -1.2 c 0.117 -0.507 0.096 -0.925 -0.058 -1.118 c -0.082 -0.103 -0.232 -0.155 -0.446 -0.155 h -0.69 c -1.79 0 -3.246 -1.457 -3.246 -3.247 v -13.41 c 0 -1.79 1.456 -3.246 3.246 -3.246 h 34.817 c 1.79 0 3.246 1.456 3.246 3.246 v 13.41 c 0 1.79 -1.456 3.247 -3.246 3.247 H 48.451 c -0.75 0 -1.378 0.538 -1.492 1.279 l -0.77 5.114 C 46.115 39.397 45.688 39.752 45.202 39.752 z" style="stroke: none; stroke-width: 1; stroke-dasharray: none; stroke-linecap: butt; stroke-linejoin: miter; stroke-miterlimit: 10; fill: rgb(0,0,0); fill-rule: nonzero; opacity: 1;" transform=" matrix(1 0 0 1 0 0) " stroke-linecap="round" />
	<path d="M 46.529 77.396 H 31.288 c -2.08 0 -3.772 -1.691 -3.772 -3.771 V 69.84 c 0 -1.63 1.049 -3.041 2.542 -3.554 l 0.406 -2.702 c 0.082 -0.547 0.593 -0.917 1.137 -0.841 c 0.546 0.082 0.922 0.592 0.84 1.138 l -0.459 3.063 c -0.008 0.055 -0.011 0.103 -0.015 0.15 c -0.038 0.476 -0.413 0.944 -0.887 1 c -0.892 0.105 -1.564 0.855 -1.564 1.746 v 3.784 c 0 0.977 0.795 1.771 1.772 1.771 h 15.242 c 0.977 0 1.771 -0.795 1.771 -1.771 V 69.84 c 0 -0.978 -0.795 -1.772 -1.771 -1.772 h -5.585 c -0.291 0 -0.568 -0.127 -0.758 -0.348 s -0.274 -0.513 -0.231 -0.801 l 0.501 -3.335 c 0.082 -0.547 0.591 -0.917 1.138 -0.841 c 0.546 0.082 0.922 0.592 0.84 1.138 l -0.329 2.187 h 4.423 c 2.08 0 3.771 1.692 3.771 3.772 v 3.784 C 50.301 75.704 48.609 77.396 46.529 77.396 z" style="stroke: none; stroke-width: 1; stroke-dasharray: none; stroke-linecap: butt; stroke-linejoin: miter; stroke-miterlimit: 10; fill: rgb(0,0,0); fill-rule: nonzero; opacity: 1;" transform=" matrix(1 0 0 1 0 0) " stroke-linecap="round" />
</g>
</svg>