<svg xmlns="http://www.w3.org/2000/svg" xmlns:xlink="http://www.w3.org/1999/xlink" version="1.1" width="256" height="256" viewBox="0 0 256 256" xml:space="preserve">

<defs>
</defs>
<g style="stroke: none; stroke-width: 0; stroke-dasharray: none; stroke-linecap: butt; stroke-linejoin: miter; stroke-miterlimit: 10; fill: none; fill-rule: nonzero; opacity: 1;" transform="translate(1.4065934065934016 1.4065934065934016) scale(2.81 2.81)" >
	<path d="M 80.659 20.973 H 20.305 c -1.738 0 -3.151 -1.414 -3.151 -3.152 V 3.151 C 17.154 1.414 18.567 0 20.305 0 h 60.354 c 1.737 0 3.151 1.414 3.151 3.151 v 14.67 C 83.811 19.559 82.396 20.973 80.659 20.973 z M 20.305 2 c -0.635 0 -1.151 0.517 -1.151 1.151 v 14.67 c 0 0.635 0.517 1.152 1.151 1.152 h 60.354 c 0.635 0 1.151 -0.517 1.151 -1.152 V 3.151 C 81.811 2.517 81.294 2 80.659 2 H 20.305 z" style="stroke: none; stroke-width: 1; stroke-dasharray: none; stroke-linecap: butt; stroke-linejoin: miter; stroke-miterlimit: 10; fill: rgb(0,0,0); fill-rule: nonzero; opacity: 1;" transform=" matrix(1 0 0 1 0 0) " stroke-linecap="round" />
	<path d="M 52.266 39.451 c -0.553 0 -1 -0.448 -1 -1 v -1.967 c 0 -1.501 -1.067 -2.811 -2.537 -3.114 l -34.177 -7.037 c -2.396 -0.493 -4.135 -2.626 -4.135 -5.073 v -7.032 c 0 -2.855 2.323 -5.179 5.179 -5.179 h 2.558 c 0.552 0 1 0.448 1 1 s -0.448 1 -1 1 h -2.558 c -1.753 0 -3.179 1.426 -3.179 3.179 v 7.032 c 0 1.501 1.067 2.811 2.538 3.114 l 34.177 7.037 c 2.396 0.493 4.134 2.626 4.134 5.073 v 1.967 C 53.266 39.003 52.818 39.451 52.266 39.451 z" style="stroke: none; stroke-width: 1; stroke-dasharray: none; stroke-linecap: butt; stroke-linejoin: miter; stroke-miterlimit: 10; fill: rgb(0,0,0); fill-rule: nonzero; opacity: 1;" transform=" matrix(1 0 0 1 0 0) " stroke-linecap="round" />
	<path d="M 87.787 15.692 h -4.977 c -0.553 0 -1 -0.448 -1 -1 V 6.281 c 0 -0.552 0.447 -1 1 -1 h 4.977 c 0.553 0 1 0.448 1 1 v 8.411 C 88.787 15.244 88.34 15.692 87.787 15.692 z M 83.811 13.692 h 2.977 V 7.281 h -2.977 V 13.692 z" style="stroke: none; stroke-width: 1; stroke-dasharray: none; stroke-linecap: butt; stroke-linejoin: miter; stroke-miterlimit: 10; fill: rgb(0,0,0); fill-rule: nonzero; opacity: 1;" transform=" matrix(1 0 0 1 0 0) " stroke-linecap="round" />
	<path d="M 56.406 82.286 H 41.473 c -3.808 0 -7.511 -1.326 -10.469 -3.743 l -3.266 -0.001 c -0.552 0 -1 -0.448 -1 -1 c 0 -0.553 0.448 -1 1 -1 h 3.629 c 0.238 0 0.469 0.085 0.65 0.24 c 2.642 2.26 6 3.504 9.456 3.504 h 14.933 c 1.499 0 2.718 -1.219 2.718 -2.718 v -0.36 c 0 -1.499 -1.219 -2.718 -2.718 -2.718 c -0.553 0 -1 -0.447 -1 -1 s 0.447 -1 1 -1 h 2.838 c 1.499 0 2.718 -1.219 2.718 -2.718 v -0.36 c 0 -1.499 -1.219 -2.718 -2.718 -2.718 c -0.553 0 -1 -0.447 -1 -1 s 0.447 -1 1 -1 h 2.638 c 1.499 0 2.718 -1.219 2.718 -2.718 v -0.361 c 0 -1.498 -1.219 -2.717 -2.718 -2.717 c -0.553 0 -1 -0.447 -1 -1 s 0.447 -1 1 -1 h 0.212 c 1.499 0 2.718 -1.219 2.718 -2.718 v -0.361 c 0 -1.499 -1.219 -2.718 -2.718 -2.718 l -13.188 0.018 c -4.17 -0.372 -4.522 -3.773 -4.532 -6.932 c -0.001 -0.552 0.445 -1.001 0.997 -1.003 c 0.578 0.005 1.001 0.444 1.002 0.997 c 0.012 3.65 0.6 4.759 2.621 4.941 l 13.099 -0.021 c 2.603 0 4.719 2.116 4.719 4.718 v 0.361 c 0 1.558 -0.759 2.94 -1.926 3.801 c 1.047 0.865 1.714 2.173 1.714 3.634 v 0.361 c 0 2.216 -1.536 4.08 -3.6 4.584 c 0.604 0.792 0.962 1.781 0.962 2.852 v 0.36 c 0 2.277 -1.621 4.183 -3.771 4.622 c 0.586 0.786 0.933 1.76 0.933 2.813 v 0.36 C 61.124 80.17 59.008 82.286 56.406 82.286 z" style="stroke: none; stroke-width: 1; stroke-dasharray: none; stroke-linecap: butt; stroke-linejoin: miter; stroke-miterlimit: 10; fill: rgb(0,0,0); fill-rule: nonzero; opacity: 1;" transform=" matrix(1 0 0 1 0 0) " stroke-linecap="round" />
	<path d="M 31.547 54.709 h -3.809 c -0.552 0 -1 -0.447 -1 -1 s 0.448 -1 1 -1 h 3.455 l 9.524 -7.704 c 1.316 -1.065 2.901 -1.693 4.583 -1.818 c 0.538 -0.048 1.03 0.372 1.071 0.923 c 0.04 0.551 -0.373 1.03 -0.924 1.071 c -1.273 0.095 -2.474 0.571 -3.472 1.379 l -9.799 7.926 C 31.998 54.631 31.776 54.709 31.547 54.709 z" style="stroke: none; stroke-width: 1; stroke-dasharray: none; stroke-linecap: butt; stroke-linejoin: miter; stroke-miterlimit: 10; fill: rgb(0,0,0); fill-rule: nonzero; opacity: 1;" transform=" matrix(1 0 0 1 0 0) " stroke-linecap="round" />
	<path d="M 51.459 58.905 c -0.552 0 -1 -0.447 -1 -0.999 c 0 -0.553 0.447 -1.001 0.999 -1.001 l 10.423 -0.007 c 0.001 0 0.001 0 0.001 0 c 0.552 0 1 0.447 1 0.999 c 0 0.553 -0.447 1.001 -0.999 1.001 L 51.459 58.905 C 51.459 58.905 51.459 58.905 51.459 58.905 z" style="stroke: none; stroke-width: 1; stroke-dasharray: none; stroke-linecap: butt; stroke-linejoin: miter; stroke-miterlimit: 10; fill: rgb(0,0,0); fill-rule: nonzero; opacity: 1;" transform=" matrix(1 0 0 1 0 0) " stroke-linecap="round" />
	<path d="M 51.459 66.701 c -0.552 0 -1 -0.447 -1 -0.999 c 0 -0.553 0.447 -1.001 0.999 -1.001 l 7.785 -0.007 h 0.001 c 0.552 0 1 0.447 1 0.999 c 0 0.553 -0.447 1 -0.999 1.001 L 51.459 66.701 L 51.459 66.701 z" style="stroke: none; stroke-width: 1; stroke-dasharray: none; stroke-linecap: butt; stroke-linejoin: miter; stroke-miterlimit: 10; fill: rgb(0,0,0); fill-rule: nonzero; opacity: 1;" transform=" matrix(1 0 0 1 0 0) " stroke-linecap="round" />
	<path d="M 56.406 74.49 h -4.947 c -0.553 0 -1 -0.447 -1 -1 s 0.447 -1 1 -1 h 4.947 c 0.553 0 1 0.447 1 1 S 56.959 74.49 56.406 74.49 z" style="stroke: none; stroke-width: 1; stroke-dasharray: none; stroke-linecap: butt; stroke-linejoin: miter; stroke-miterlimit: 10; fill: rgb(0,0,0); fill-rule: nonzero; opacity: 1;" transform=" matrix(1 0 0 1 0 0) " stroke-linecap="round" />
	<path d="M 58.715 51.106 c -0.553 0 -1 -0.447 -1 -1 V 39.451 H 46.384 v 4.733 c 0 0.552 -0.447 1 -1 1 s -1 -0.448 -1 -1 v -5.733 c 0 -0.552 0.448 -1 1 -1 h 13.331 c 0.553 0 1 0.448 1 1 v 11.655 C 59.715 50.659 59.268 51.106 58.715 51.106 z" style="stroke: none; stroke-width: 1; stroke-dasharray: none; stroke-linecap: butt; stroke-linejoin: miter; stroke-miterlimit: 10; fill: rgb(0,0,0); fill-rule: nonzero; opacity: 1;" transform=" matrix(1 0 0 1 0 0) " stroke-linecap="round" />
	<path d="M 52.05 90 c -4.227 0 -7.666 -3.438 -7.666 -7.665 v -1.049 c 0 -0.553 0.448 -1 1 -1 s 1 0.447 1 1 v 1.049 c 0 3.124 2.542 5.665 5.666 5.665 s 5.665 -2.541 5.665 -5.665 v -1.861 c 0 -0.553 0.447 -1 1 -1 s 1 0.447 1 1 v 1.861 C 59.715 86.562 56.276 90 52.05 90 z" style="stroke: none; stroke-width: 1; stroke-dasharray: none; stroke-linecap: butt; stroke-linejoin: miter; stroke-miterlimit: 10; fill: rgb(0,0,0); fill-rule: nonzero; opacity: 1;" transform=" matrix(1 0 0 1 0 0) " stroke-linecap="round" />
	<path d="M 27.738 83.286 H 17.32 c -0.552 0 -1 -0.447 -1 -1 V 49.008 c 0 -0.553 0.448 -1 1 -1 h 10.418 c 0.552 0 1 0.447 1 1 v 33.278 C 28.738 82.839 28.291 83.286 27.738 83.286 z M 18.32 81.286 h 8.418 V 50.008 H 18.32 V 81.286 z" style="stroke: none; stroke-width: 1; stroke-dasharray: none; stroke-linecap: butt; stroke-linejoin: miter; stroke-miterlimit: 10; fill: rgb(0,0,0); fill-rule: nonzero; opacity: 1;" transform=" matrix(1 0 0 1 0 0) " stroke-linecap="round" />
	<path d="M 17.32 81.192 H 2.213 c -0.552 0 -1 -0.447 -1 -1 v -29.09 c 0 -0.553 0.448 -1 1 -1 H 17.32 c 0.552 0 1 0.447 1 1 v 29.09 C 18.32 80.745 17.873 81.192 17.32 81.192 z M 3.213 79.192 H 16.32 v -27.09 H 3.213 V 79.192 z" style="stroke: none; stroke-width: 1; stroke-dasharray: none; stroke-linecap: butt; stroke-linejoin: miter; stroke-miterlimit: 10; fill: rgb(0,0,0); fill-rule: nonzero; opacity: 1;" transform=" matrix(1 0 0 1 0 0) " stroke-linecap="round" />
</g>
</svg>