<svg xmlns="http://www.w3.org/2000/svg" xmlns:xlink="http://www.w3.org/1999/xlink" version="1.1" width="256" height="256" viewBox="0 0 256 256" xml:space="preserve">

<defs>
</defs>
<g style="stroke: none; stroke-width: 0; stroke-dasharray: none; stroke-linecap: butt; stroke-linejoin: miter; stroke-miterlimit: 10; fill: none; fill-rule: nonzero; opacity: 1;" transform="translate(1.4065934065934016 1.4065934065934016) scale(2.81 2.81)" >
	<path d="M 67.394 82.286 H 52.461 c -3.808 0 -7.511 -1.326 -10.469 -3.743 l -3.266 -0.001 c -0.552 0 -1 -0.448 -1 -1 c 0 -0.553 0.448 -1 1 -1 h 3.629 c 0.238 0 0.469 0.085 0.65 0.24 c 2.642 2.26 6 3.504 9.456 3.504 h 14.933 c 1.499 0 2.718 -1.219 2.718 -2.718 v -0.36 c 0 -1.499 -1.219 -2.718 -2.718 -2.718 c -0.553 0 -1 -0.447 -1 -1 s 0.447 -1 1 -1 h 2.838 c 1.499 0 2.718 -1.219 2.718 -2.718 v -0.36 c 0 -1.499 -1.219 -2.718 -2.718 -2.718 c -0.553 0 -1 -0.447 -1 -1 s 0.447 -1 1 -1 h 2.638 c 1.499 0 2.718 -1.219 2.718 -2.718 v -0.36 c 0 -1.499 -1.219 -2.718 -2.718 -2.718 c -0.553 0 -1 -0.447 -1 -1 s 0.447 -1 1 -1 h 0.212 c 1.499 0 2.718 -1.219 2.718 -2.718 v -0.36 c 0 -1.499 -1.219 -2.718 -2.718 -2.718 L 59.893 51.12 c -4.17 -0.372 -4.521 -3.773 -4.531 -6.932 c -0.002 -0.552 0.444 -1.001 0.997 -1.003 c 0.001 0 0.002 0 0.003 0 c 0.551 0 0.998 0.446 1 0.997 c 0.011 3.651 0.599 4.759 2.62 4.942 l 13.099 -0.021 c 2.603 0 4.719 2.116 4.719 4.718 v 0.36 c 0 1.558 -0.759 2.94 -1.926 3.801 c 1.046 0.866 1.714 2.174 1.714 3.635 v 0.36 c 0 2.216 -1.536 4.08 -3.6 4.584 c 0.604 0.792 0.962 1.781 0.962 2.852 v 0.36 c 0 2.277 -1.621 4.183 -3.771 4.622 c 0.586 0.786 0.933 1.76 0.933 2.813 v 0.36 C 72.111 80.17 69.995 82.286 67.394 82.286 z" style="stroke: none; stroke-width: 1; stroke-dasharray: none; stroke-linecap: butt; stroke-linejoin: miter; stroke-miterlimit: 10; fill: rgb(0,0,0); fill-rule: nonzero; opacity: 1;" transform=" matrix(1 0 0 1 0 0) " stroke-linecap="round" />
	<path d="M 42.535 54.71 h -3.809 c -0.552 0 -1 -0.447 -1 -1 s 0.448 -1 1 -1 h 3.455 l 9.524 -7.704 c 1.316 -1.065 2.9 -1.693 4.582 -1.818 c 0.559 -0.047 1.03 0.373 1.071 0.923 s -0.372 1.03 -0.923 1.071 c -1.273 0.095 -2.475 0.571 -3.473 1.378 l -9.799 7.927 C 42.986 54.632 42.764 54.71 42.535 54.71 z" style="stroke: none; stroke-width: 1; stroke-dasharray: none; stroke-linecap: butt; stroke-linejoin: miter; stroke-miterlimit: 10; fill: rgb(0,0,0); fill-rule: nonzero; opacity: 1;" transform=" matrix(1 0 0 1 0 0) " stroke-linecap="round" />
	<path d="M 62.446 58.906 c -0.552 0 -1 -0.447 -1 -0.999 c 0 -0.553 0.447 -1.001 0.999 -1.001 l 10.423 -0.008 h 0.001 c 0.552 0 1 0.447 1 0.999 c 0 0.553 -0.447 1.001 -0.999 1.001 L 62.446 58.906 L 62.446 58.906 z" style="stroke: none; stroke-width: 1; stroke-dasharray: none; stroke-linecap: butt; stroke-linejoin: miter; stroke-miterlimit: 10; fill: rgb(0,0,0); fill-rule: nonzero; opacity: 1;" transform=" matrix(1 0 0 1 0 0) " stroke-linecap="round" />
	<path d="M 62.446 66.702 c -0.552 0 -0.999 -0.447 -1 -0.999 c -0.001 -0.553 0.446 -1 0.999 -1.001 l 7.785 -0.008 h 0.001 c 0.552 0 0.999 0.447 1 0.999 c 0.001 0.553 -0.446 1 -0.999 1.001 L 62.446 66.702 L 62.446 66.702 z" style="stroke: none; stroke-width: 1; stroke-dasharray: none; stroke-linecap: butt; stroke-linejoin: miter; stroke-miterlimit: 10; fill: rgb(0,0,0); fill-rule: nonzero; opacity: 1;" transform=" matrix(1 0 0 1 0 0) " stroke-linecap="round" />
	<path d="M 67.394 74.49 h -4.947 c -0.553 0 -1 -0.447 -1 -1 s 0.447 -1 1 -1 h 4.947 c 0.553 0 1 0.447 1 1 S 67.946 74.49 67.394 74.49 z" style="stroke: none; stroke-width: 1; stroke-dasharray: none; stroke-linecap: butt; stroke-linejoin: miter; stroke-miterlimit: 10; fill: rgb(0,0,0); fill-rule: nonzero; opacity: 1;" transform=" matrix(1 0 0 1 0 0) " stroke-linecap="round" />
	<path d="M 69.702 51.107 c -0.553 0 -1 -0.447 -1 -1 V 39.452 h -11.33 v 4.733 c 0 0.552 -0.447 1 -1 1 s -1 -0.448 -1 -1 v -5.733 c 0 -0.552 0.447 -1 1 -1 h 13.33 c 0.553 0 1 0.448 1 1 v 11.656 C 70.702 50.66 70.255 51.107 69.702 51.107 z" style="stroke: none; stroke-width: 1; stroke-dasharray: none; stroke-linecap: butt; stroke-linejoin: miter; stroke-miterlimit: 10; fill: rgb(0,0,0); fill-rule: nonzero; opacity: 1;" transform=" matrix(1 0 0 1 0 0) " stroke-linecap="round" />
	<path d="M 63.037 90 c -4.227 0 -7.665 -3.438 -7.665 -7.665 v -1.049 c 0 -0.553 0.447 -1 1 -1 s 1 0.447 1 1 v 1.049 c 0 3.124 2.541 5.665 5.665 5.665 s 5.665 -2.541 5.665 -5.665 v -1.861 c 0 -0.553 0.447 -1 1 -1 s 1 0.447 1 1 v 1.861 C 70.702 86.562 67.264 90 63.037 90 z" style="stroke: none; stroke-width: 1; stroke-dasharray: none; stroke-linecap: butt; stroke-linejoin: miter; stroke-miterlimit: 10; fill: rgb(0,0,0); fill-rule: nonzero; opacity: 1;" transform=" matrix(1 0 0 1 0 0) " stroke-linecap="round" />
	<path d="M 38.726 83.286 H 28.308 c -0.552 0 -1 -0.447 -1 -1 V 49.009 c 0 -0.553 0.448 -1 1 -1 h 10.418 c 0.552 0 1 0.447 1 1 v 33.277 C 39.726 82.839 39.278 83.286 38.726 83.286 z M 29.308 81.286 h 8.418 V 50.009 h -8.418 V 81.286 z" style="stroke: none; stroke-width: 1; stroke-dasharray: none; stroke-linecap: butt; stroke-linejoin: miter; stroke-miterlimit: 10; fill: rgb(0,0,0); fill-rule: nonzero; opacity: 1;" transform=" matrix(1 0 0 1 0 0) " stroke-linecap="round" />
	<path d="M 28.308 81.192 H 13.201 c -0.552 0 -1 -0.447 -1 -1 v -29.09 c 0 -0.553 0.448 -1 1 -1 h 15.107 c 0.552 0 1 0.447 1 1 v 29.09 C 29.308 80.745 28.86 81.192 28.308 81.192 z M 14.201 79.192 h 13.107 v -27.09 H 14.201 V 79.192 z" style="stroke: none; stroke-width: 1; stroke-dasharray: none; stroke-linecap: butt; stroke-linejoin: miter; stroke-miterlimit: 10; fill: rgb(0,0,0); fill-rule: nonzero; opacity: 1;" transform=" matrix(1 0 0 1 0 0) " stroke-linecap="round" />
	<path d="M 65.483 39.452 H 60.67 c -0.553 0 -1 -0.448 -1 -1 V 12.938 l -1.391 -4.065 c -0.065 -0.193 -0.071 -0.402 -0.016 -0.598 l 2.151 -7.549 C 60.538 0.296 60.931 0 61.377 0 h 3.398 c 0.446 0 0.839 0.296 0.962 0.726 l 2.151 7.549 c 0.056 0.196 0.05 0.404 -0.016 0.597 l -1.39 4.065 v 25.514 C 66.483 39.004 66.036 39.452 65.483 39.452 z M 61.67 37.452 h 2.813 v -24.68 c 0 -0.11 0.019 -0.219 0.054 -0.323 l 1.342 -3.927 L 64.021 2 h -1.889 l -1.858 6.521 l 1.343 3.926 c 0.035 0.104 0.054 0.213 0.054 0.324 V 37.452 z" style="stroke: none; stroke-width: 1; stroke-dasharray: none; stroke-linecap: butt; stroke-linejoin: miter; stroke-miterlimit: 10; fill: rgb(0,0,0); fill-rule: nonzero; opacity: 1;" transform=" matrix(1 0 0 1 0 0) " stroke-linecap="round" />
</g>
</svg>