<svg xmlns="http://www.w3.org/2000/svg" xmlns:xlink="http://www.w3.org/1999/xlink" version="1.1" width="256" height="256" viewBox="0 0 256 256" xml:space="preserve">

<defs>
</defs>
<g style="stroke: none; stroke-width: 0; stroke-dasharray: none; stroke-linecap: butt; stroke-linejoin: miter; stroke-miterlimit: 10; fill: none; fill-rule: nonzero; opacity: 1;" transform="translate(1.4065934065934016 1.4065934065934016) scale(2.81 2.81)" >
	<path d="M 65.997 63.193 H 51.995 c -3.576 0 -7.055 -1.244 -9.838 -3.51 l -3.041 -0.001 c -0.552 0 -1 -0.448 -1 -1 c 0 -0.553 0.448 -1 1 -1 h 3.403 c 0.238 0 0.469 0.085 0.65 0.24 c 2.466 2.109 5.6 3.271 8.825 3.271 h 14.002 c 1.37 0 2.485 -1.115 2.485 -2.486 v -0.338 c 0 -1.37 -1.115 -2.485 -2.485 -2.485 c -0.553 0 -1 -0.447 -1 -1 s 0.447 -1 1 -1 h 2.66 c 1.371 0 2.486 -1.115 2.486 -2.486 V 51.06 c 0 -1.37 -1.115 -2.485 -2.486 -2.485 c -0.553 0 -1 -0.447 -1 -1 s 0.447 -1 1 -1 h 2.474 c 1.371 0 2.486 -1.115 2.486 -2.486 V 43.75 c 0 -1.371 -1.115 -2.486 -2.486 -2.486 c -0.553 0 -1 -0.448 -1 -1 s 0.447 -1 1 -1 h 0.198 c 1.371 0 2.486 -1.115 2.486 -2.486 V 36.44 c 0 -1.371 -1.115 -2.486 -2.486 -2.486 l -12.365 0.017 c -3.967 -0.354 -4.302 -3.573 -4.312 -6.562 c -0.002 -0.552 0.444 -1.001 0.997 -1.003 c 0.001 0 0.002 0 0.003 0 c 0.551 0 0.998 0.446 1 0.997 c 0.013 3.728 0.75 4.423 2.4 4.572 l 12.275 -0.021 c 2.475 0 4.487 2.012 4.487 4.486 v 0.338 c 0 1.452 -0.694 2.746 -1.768 3.566 c 0.96 0.824 1.569 2.045 1.569 3.406 v 0.338 c 0 2.075 -1.416 3.825 -3.332 4.336 c 0.54 0.74 0.858 1.651 0.858 2.636 v 0.338 c 0 2.132 -1.495 3.921 -3.491 4.375 c 0.522 0.733 0.83 1.63 0.83 2.597 v 0.338 C 70.482 61.181 68.471 63.193 65.997 63.193 z" style="stroke: none; stroke-width: 1; stroke-dasharray: none; stroke-linecap: butt; stroke-linejoin: miter; stroke-miterlimit: 10; fill: rgb(0,0,0); fill-rule: nonzero; opacity: 1;" transform=" matrix(1 0 0 1 0 0) " stroke-linecap="round" />
	<path d="M 42.689 37.337 h -3.572 c -0.552 0 -1 -0.448 -1 -1 s 0.448 -1 1 -1 h 3.218 l 8.912 -7.209 c 1.244 -1.006 2.742 -1.601 4.331 -1.718 c 0.562 -0.045 1.03 0.373 1.071 0.923 c 0.041 0.551 -0.372 1.031 -0.923 1.071 c -1.182 0.088 -2.296 0.53 -3.222 1.279 l -9.187 7.432 C 43.14 37.258 42.918 37.337 42.689 37.337 z" style="stroke: none; stroke-width: 1; stroke-dasharray: none; stroke-linecap: butt; stroke-linejoin: miter; stroke-miterlimit: 10; fill: rgb(0,0,0); fill-rule: nonzero; opacity: 1;" transform=" matrix(1 0 0 1 0 0) " stroke-linecap="round" />
	<path d="M 61.358 41.271 c -0.552 0 -1 -0.447 -1 -0.999 c 0 -0.553 0.447 -1 0.999 -1.001 l 9.772 -0.007 h 0.001 c 0.552 0 1 0.447 1 0.999 c 0 0.553 -0.447 1 -0.999 1.001 L 61.358 41.271 L 61.358 41.271 z" style="stroke: none; stroke-width: 1; stroke-dasharray: none; stroke-linecap: butt; stroke-linejoin: miter; stroke-miterlimit: 10; fill: rgb(0,0,0); fill-rule: nonzero; opacity: 1;" transform=" matrix(1 0 0 1 0 0) " stroke-linecap="round" />
	<path d="M 61.358 48.581 c -0.552 0 -0.999 -0.447 -1 -0.999 c -0.001 -0.553 0.446 -1 0.999 -1.001 l 7.299 -0.007 h 0.001 c 0.552 0 0.999 0.447 1 0.999 c 0.001 0.553 -0.446 1 -0.999 1.001 L 61.358 48.581 L 61.358 48.581 z" style="stroke: none; stroke-width: 1; stroke-dasharray: none; stroke-linecap: butt; stroke-linejoin: miter; stroke-miterlimit: 10; fill: rgb(0,0,0); fill-rule: nonzero; opacity: 1;" transform=" matrix(1 0 0 1 0 0) " stroke-linecap="round" />
	<path d="M 65.997 55.884 h -4.639 c -0.553 0 -1 -0.447 -1 -1 s 0.447 -1 1 -1 h 4.639 c 0.553 0 1 0.447 1 1 S 66.55 55.884 65.997 55.884 z" style="stroke: none; stroke-width: 1; stroke-dasharray: none; stroke-linecap: butt; stroke-linejoin: miter; stroke-miterlimit: 10; fill: rgb(0,0,0); fill-rule: nonzero; opacity: 1;" transform=" matrix(1 0 0 1 0 0) " stroke-linecap="round" />
	<path d="M 39.117 64.131 h -9.768 c -0.552 0 -1 -0.447 -1 -1 V 31.929 c 0 -0.552 0.448 -1 1 -1 h 9.768 c 0.552 0 1 0.448 1 1 v 31.202 C 40.117 63.684 39.669 64.131 39.117 64.131 z M 30.349 62.131 h 7.768 V 32.929 h -7.768 V 62.131 z" style="stroke: none; stroke-width: 1; stroke-dasharray: none; stroke-linecap: butt; stroke-linejoin: miter; stroke-miterlimit: 10; fill: rgb(0,0,0); fill-rule: nonzero; opacity: 1;" transform=" matrix(1 0 0 1 0 0) " stroke-linecap="round" />
	<path d="M 29.349 62.167 H 15.185 c -0.552 0 -1 -0.447 -1 -1 V 33.892 c 0 -0.552 0.448 -1 1 -1 h 14.165 c 0.552 0 1 0.448 1 1 v 27.275 C 30.349 61.72 29.901 62.167 29.349 62.167 z M 16.185 60.167 h 12.165 V 34.892 H 16.185 V 60.167 z" style="stroke: none; stroke-width: 1; stroke-dasharray: none; stroke-linecap: butt; stroke-linejoin: miter; stroke-miterlimit: 10; fill: rgb(0,0,0); fill-rule: nonzero; opacity: 1;" transform=" matrix(1 0 0 1 0 0) " stroke-linecap="round" />
	<path d="M 65.217 33.963 c -0.553 0 -1 -0.448 -1 -1 v -9.622 c 0 -0.402 0.241 -0.765 0.611 -0.921 c 4.202 -1.772 6.918 -5.864 6.918 -10.424 c 0 -3.729 -1.805 -7.138 -4.802 -9.238 v 6.471 c 0 3.587 -2.919 6.506 -6.506 6.506 s -6.506 -2.918 -6.506 -6.506 V 2.758 c -2.997 2.1 -4.802 5.508 -4.802 9.238 c 0 4.56 2.716 8.651 6.918 10.424 c 0.37 0.156 0.611 0.519 0.611 0.921 v 4.065 c 0 0.552 -0.447 1 -1 1 s -1 -0.448 -1 -1 v -3.419 c -4.596 -2.213 -7.529 -6.849 -7.529 -11.991 c 0 -5.059 2.817 -9.614 7.354 -11.89 c 0.31 -0.156 0.677 -0.139 0.974 0.043 C 55.753 0.331 55.933 0.653 55.933 1 v 8.229 c 0 2.484 2.021 4.506 4.506 4.506 s 4.506 -2.021 4.506 -4.506 V 1 c 0 -0.347 0.18 -0.669 0.475 -0.851 c 0.296 -0.182 0.663 -0.199 0.974 -0.042 c 4.536 2.276 7.354 6.832 7.354 11.89 c 0 5.142 -2.934 9.777 -7.529 11.991 v 8.976 C 66.217 33.515 65.77 33.963 65.217 33.963 z" style="stroke: none; stroke-width: 1; stroke-dasharray: none; stroke-linecap: butt; stroke-linejoin: miter; stroke-miterlimit: 10; fill: rgb(0,0,0); fill-rule: nonzero; opacity: 1;" transform=" matrix(1 0 0 1 0 0) " stroke-linecap="round" />
	<path d="M 54.933 90 c -0.153 0 -0.307 -0.035 -0.448 -0.106 c -4.536 -2.275 -7.354 -6.832 -7.354 -11.89 c 0 -5.142 2.934 -9.777 7.529 -11.99 v -3.82 c 0 -0.553 0.447 -1 1 -1 s 1 0.447 1 1 v 4.466 c 0 0.402 -0.241 0.766 -0.611 0.922 c -4.202 1.771 -6.918 5.863 -6.918 10.423 c 0 3.729 1.805 7.138 4.802 9.238 v -6.471 c 0 -3.588 2.919 -6.507 6.506 -6.507 s 6.506 2.919 6.506 6.507 v 6.471 c 2.997 -2.101 4.802 -5.509 4.802 -9.238 c 0 -4.56 -2.716 -8.651 -6.918 -10.423 c -0.37 -0.156 -0.611 -0.52 -0.611 -0.922 v -4.466 c 0 -0.553 0.447 -1 1 -1 s 1 0.447 1 1 v 3.82 c 4.596 2.213 7.529 6.849 7.529 11.99 c 0 5.058 -2.817 9.613 -7.354 11.89 c -0.311 0.155 -0.678 0.141 -0.974 -0.043 c -0.295 -0.182 -0.475 -0.504 -0.475 -0.851 v -8.229 c 0 -2.485 -2.021 -4.507 -4.506 -4.507 s -4.506 2.021 -4.506 4.507 V 89 c 0 0.347 -0.18 0.669 -0.475 0.851 C 55.297 89.95 55.115 90 54.933 90 z" style="stroke: none; stroke-width: 1; stroke-dasharray: none; stroke-linecap: butt; stroke-linejoin: miter; stroke-miterlimit: 10; fill: rgb(0,0,0); fill-rule: nonzero; opacity: 1;" transform=" matrix(1 0 0 1 0 0) " stroke-linecap="round" />
</g>
</svg>